<svg width="739.9375" height="250.00000000000003" xmlns="http://www.w3.org/2000/svg">
 <metadata id="metadata203">image/svg+xml</metadata>

 <g>
  <title>background</title>
  <rect x="-1" y="-1" width="741.9375" height="252" id="canvas_background" fill="none"/>
 </g>
 <g>
  <title>Layer 1</title>
  <g id="g0001" font-family="Bitstream Vera Sans" stroke-width="1px" font-style="normal">
   <text x="48.48948" y="40.131248" id="text5" font-weight="bold" font-size="28.799999px">Input</text>
   <text x="539.57486" y="40.131248" id="text7" fill="#000000" font-weight="bold" font-size="28.799999px">Digest</text>
   <rect width="141.20421" height="78" x="12.313333" y="55.881248" id="rect39" stroke-width="0.997194" stroke="#000000" fill="#00ffff"/>
   <text x="38.135812" y="77.881248" id="text41" fill="#000000" font-weight="normal" font-size="19.200001px">The red fox</text>
   <text x="40.510812" y="101.129684" id="text43" fill="#000000" font-weight="normal" font-size="19.200001px">jumps over</text>
   <text x="35.456124" y="123.881248" id="text45" fill="#000000" font-weight="normal" font-size="19.200001px">the blue dog</text>
   <rect width="154" height="75" x="214.5" y="57.381248" id="rect47" stroke="#000000" fill="#ffff90"/>
   <text transform="matrix(1,0,0,1,0,0) " x="238.1875" y="78.881248" id="text49" fill="#000000" font-weight="normal" font-size="19.200001px">cryptographic</text>
   <text transform="matrix(1,0,0,1,0,0) " x="273.90625" y="101.129684" id="text51" fill="#000000" font-weight="normal" font-size="19.200001px">hash</text>
   <text x="259.507813" y="122.881248" id="text53" fill="#000000" font-weight="normal" font-size="19.200001px">function</text>
   <rect width="298.93976" height="60" x="428.501772" y="64.881248" id="rect55" stroke-width="0.988396" stroke="#000000" fill="#ff9ccf"/>
   <text x="439.706511" y="89.881248" id="text57" font-family="Courier" fill="#000000" font-weight="bold" font-size="19.200001px">0086 46BB FB7D CBE2 823C</text>
   <text x="439.776823" y="112.881248" id="text59" font-family="Courier" fill="#000000" font-weight="bold" font-size="19.200001px">ACC7 6CD1 90B1 EE6E 3ABC</text>
   <path d="m153.39179,94.881248c61.17891,0 61.17891,0 61.17891,0" id="path63" stroke-width="1.514665px" stroke="#000000" fill="none"/>
   <g id="g65">
    <path d="m214.570694,94.881248l-16,6l0,-12l16,6z" id="path67" stroke-width="1.5px" stroke="#000000" fill="#000000"/>
   </g>
   <g id="g69">
    <path d="m368.5,94.881248c60,0 60,0 60,0" id="path71" stroke-width="1.5px" stroke="#000000" fill="none"/>
    <g id="g73">
     <path d="m428.5,94.881248l-16,6l0,-12l16,6z" id="path75" stroke-width="1.5px" stroke="#000000" fill="#000000"/>
    </g>
   </g>
   <rect width="141.20421" height="78" x="12.313333" y="155.881248" id="rect77" stroke-width="0.997194" stroke="#000000" fill="#00ffff"/>
   <text x="38.135812" y="177.881248" id="text79" fill="#000000" font-weight="normal" font-size="19.200001px">The red fox</text>
   <rect stroke="null" width="9.124865" height="15.783455" x="102.039603" y="188.649931" id="rect4066-5" fill="#7effe5"/>
   <text x="40.510812" y="201.129676" id="text81" fill="#000000" font-weight="normal" font-size="19.200001px">jumps ouer</text>
   <text x="35.456124" y="223.881248" id="text89" fill="#000000" font-weight="normal" font-size="19.200001px">the blue dog</text>
   <rect width="154" height="75" x="214.5" y="157.381248" id="rect91" stroke="#000000" fill="#ffff90"/>
   <text transform="matrix(1,0,0,1,0,0) " x="238.1875" y="178.881248" id="text93" fill="#000000" font-weight="normal" font-size="19.200001px">cryptographic</text>
   <text x="273.90625" y="201.129676" id="text95" fill="#000000" font-weight="normal" font-size="19.200001px">hash</text>
   <text x="259.507813" y="222.881248" id="text97" fill="#000000" font-weight="normal" font-size="19.200001px">function</text>
   <rect width="298.93976" height="60" x="428.501772" y="164.881248" id="rect99" stroke-width="0.988396" stroke="#000000" fill="#ff9ccf"/>
   <text x="439.706511" y="189.881248" id="text101" font-family="Courier" fill="#000000" font-weight="bold" font-size="19.200001px">8FD8 7558 7851 4F32 D1C6</text>
   <text x="439.706511" y="212.881248" id="text103" font-family="Courier" fill="#000000" font-weight="bold" font-size="19.200001px">76B1 79A9 0DA4 AEFE 4819</text>
   <path d="m153.39179,194.881248c61.17891,0 61.17891,0 61.17891,0" id="path106" stroke-width="1.514665px" stroke="#000000" fill="none"/>
   <g id="g2003">
    <path d="m214.570694,194.881248l-16,6l0,-12l16,6z" id="path109" stroke-width="1.5px" stroke="#000000" fill="#000000"/>
   </g>
   <g id="g6003">
    <path d="m368.5,194.881248c60,0 60,0 60,0" id="path112" stroke-width="1.5px" stroke="#000000" fill="none"/>
    <g id="g2004">
     <path d="m428.5,194.881248l-16,6l0,-12l16,6z" id="path115" stroke-width="1.5px" stroke="#000000" fill="#000000"/>
    </g>
   </g>
  </g>
 </g>
</svg>