<svg width="739.9375" height="250" xmlns="http://www.w3.org/2000/svg">
 <metadata id="metadata203">image/svg+xml</metadata>

 <g>
  <title>background</title>
  <rect fill="none" id="canvas_background" height="252" width="741.9375" y="-1" x="-1"/>
 </g>
 <g>
  <title>Layer 1</title>
  <g font-style="normal" stroke-width="1px" font-family="Bitstream Vera Sans" id="g0001">
   <text font-size="28.799999px" font-weight="bold" id="text5" y="40.131248" x="48.48948">Input</text>
   <text font-size="28.799999px" font-weight="bold" fill="#000000" id="text7" y="40.131248" x="539.57486">Digest</text>
   <rect fill="#00ffff" stroke="#000000" stroke-width="0.997194" id="rect39" y="55.881248" x="12.313333" height="78" width="141.20421"/>
   <text font-size="19.200001px" font-weight="normal" fill="#000000" id="text41" y="77.881248" x="38.135812">The red fox</text>
   <text font-size="19.200001px" font-weight="normal" fill="#000000" id="text43" y="101.129684" x="40.510812">jumps over</text>
   <text font-size="19.200001px" font-weight="normal" fill="#000000" id="text45" y="123.881248" x="35.456124">the blue dog</text>
   <rect fill="#ffff90" stroke="#000000" id="rect47" y="57.381248" x="214.5" height="75" width="154"/>
   <text font-size="19.200001px" font-weight="normal" fill="#000000" id="text49" y="78.881248" x="238.1875">cryptographic</text>
   <text font-size="19.200001px" font-weight="normal" fill="#000000" id="text51" y="101.129684" x="273.90625">hash</text>
   <text font-size="19.200001px" font-weight="normal" fill="#000000" id="text53" y="122.881248" x="259.507813">function</text>
   <rect fill="#ff9ccf" stroke="#000000" stroke-width="0.988396" id="rect55" y="64.881248" x="428.501772" height="60" width="298.93976"/>
   <text font-size="19.200001px" font-weight="bold" fill="#000000" font-family="Courier" id="text57" y="89.881248" x="439.706511">0086 46BB FB7D CBE2 823C</text>
   <text font-size="19.200001px" font-weight="bold" fill="#000000" font-family="Courier" id="text59" y="112.881248" x="439.776823">ACC7 6CD1 90B1 EE6E 3ABC</text>
   <path fill="none" stroke="#000000" stroke-width="1.514665px" id="path63" d="m153.39179,94.88125c61.17891,0 61.17891,0 61.17891,0"/>
   <g id="g65">
    <path fill="#000000" stroke="#000000" stroke-width="1.5px" id="path67" d="m214.57069,94.88125l-16,6l0,-12l16,6z"/>
   </g>
   <g id="g69">
    <path fill="none" stroke="#000000" stroke-width="1.5px" id="path71" d="m368.5,94.88125c60,0 60,0 60,0"/>
    <g id="g73">
     <path fill="#000000" stroke="#000000" stroke-width="1.5px" id="path75" d="m428.5,94.88125l-16,6l0,-12l16,6z"/>
    </g>
   </g>
   <rect fill="#00ffff" stroke="#000000" stroke-width="0.997194" id="rect77" y="155.881248" x="12.313333" height="78" width="141.20421"/>
   <text font-size="19.200001px" font-weight="normal" fill="#000000" id="text79" y="177.881248" x="38.135812">The red fox</text>
   <rect fill="#7f92ff" id="rect4066-5" y="188.649931" x="102.039603" height="15.783455" width="9.124865" stroke="null"/>
   <text font-size="19.200001px" font-weight="normal" fill="#000000" id="text81" y="201.129676" x="40.510812">jumps ouer</text>
   <text font-size="19.200001px" font-weight="normal" fill="#000000" id="text89" y="223.881248" x="35.456124">the blue dog</text>
   <rect fill="#ffff90" stroke="#000000" id="rect91" y="157.381248" x="214.5" height="75" width="154"/>
   <text font-size="19.200001px" font-weight="normal" fill="#000000" id="text93" y="178.881248" x="238.1875">cryptographic</text>
   <text font-size="19.200001px" font-weight="normal" fill="#000000" id="text95" y="201.129676" x="273.90625">hash</text>
   <text font-size="19.200001px" font-weight="normal" fill="#000000" id="text97" y="222.881248" x="259.507813">function</text>
   <rect fill="#ff9ccf" stroke="#000000" stroke-width="0.988396" id="rect99" y="164.881248" x="428.501772" height="60" width="298.93976"/>
   <text font-size="19.200001px" font-weight="bold" fill="#000000" font-family="Courier" id="text101" y="189.881248" x="439.706511">8FD8 7558 7851 4F32 D1C6</text>
   <text font-size="19.200001px" font-weight="bold" fill="#000000" font-family="Courier" id="text103" y="212.881248" x="439.706511">76B1 79A9 0DA4 AEFE 4819</text>
   <path fill="none" stroke="#000000" stroke-width="1.514665px" id="path106" d="m153.39179,194.88125c61.17891,0 61.17891,0 61.17891,0"/>
   <g id="g2003">
    <path fill="#000000" stroke="#000000" stroke-width="1.5px" id="path109" d="m214.57069,194.88125l-16,6l0,-12l16,6z"/>
   </g>
   <g id="g6003">
    <path fill="none" stroke="#000000" stroke-width="1.5px" id="path112" d="m368.5,194.88125c60,0 60,0 60,0"/>
    <g id="g2004">
     <path fill="#000000" stroke="#000000" stroke-width="1.5px" id="path115" d="m428.5,194.88125l-16,6l0,-12l16,6z"/>
    </g>
   </g>
  </g>
 </g>
</svg>